<mxfile host="drawio-plugin" modified="2024-04-17T18:58:00.817Z" agent="5.0 (Windows NT 10.0; Win64; x64) AppleWebKit/537.36 (KHTML, like Gecko) Chrome/122.0.0.0 Safari/537.36" version="20.5.3" etag="ChbJwu7CrnRnw7CU4KjF" type="embed"><diagram id="C5RBs43oDa-KdzZeNtuy" name="Page-1"><mxGraphModel dx="911" dy="763" grid="0" gridSize="10" guides="1" tooltips="1" connect="1" arrows="1" fold="1" page="0" pageScale="1" pageWidth="827" pageHeight="1169" math="0" shadow="0"><root><mxCell id="WIyWlLk6GJQsqaUBKTNV-0"/><mxCell id="WIyWlLk6GJQsqaUBKTNV-1" parent="WIyWlLk6GJQsqaUBKTNV-0"/><mxCell id="zkfFHV4jXpPFQw0GAbJ--0" value="Department" style="swimlane;fontStyle=1;align=center;verticalAlign=top;childLayout=stackLayout;horizontal=1;startSize=26;horizontalStack=0;resizeParent=1;resizeLast=0;collapsible=1;marginBottom=0;rounded=0;shadow=0;strokeWidth=1;" parent="WIyWlLk6GJQsqaUBKTNV-1" vertex="1"><mxGeometry x="630" y="650" width="340" height="226" as="geometry"><mxRectangle x="230" y="140" width="160" height="26" as="alternateBounds"/></mxGeometry></mxCell><mxCell id="zkfFHV4jXpPFQw0GAbJ--2" value="- courseMap: HashMap&lt;String, Course&gt;" style="text;align=left;verticalAlign=top;spacingLeft=4;spacingRight=4;overflow=hidden;rotatable=0;points=[[0,0.5],[1,0.5]];portConstraint=eastwest;rounded=0;shadow=0;html=0;" parent="zkfFHV4jXpPFQw0GAbJ--0" vertex="1"><mxGeometry y="26" width="340" height="22" as="geometry"/></mxCell><mxCell id="zkfFHV4jXpPFQw0GAbJ--3" value="- listOfProfs: List&lt;Professor&gt;" style="text;align=left;verticalAlign=top;spacingLeft=4;spacingRight=4;overflow=hidden;rotatable=0;points=[[0,0.5],[1,0.5]];portConstraint=eastwest;rounded=0;shadow=0;html=0;" parent="zkfFHV4jXpPFQw0GAbJ--0" vertex="1"><mxGeometry y="48" width="340" height="26" as="geometry"/></mxCell><mxCell id="zkfFHV4jXpPFQw0GAbJ--4" value="" style="line;html=1;strokeWidth=1;align=left;verticalAlign=middle;spacingTop=-1;spacingLeft=3;spacingRight=3;rotatable=0;labelPosition=right;points=[];portConstraint=eastwest;" parent="zkfFHV4jXpPFQw0GAbJ--0" vertex="1"><mxGeometry y="74" width="340" height="8" as="geometry"/></mxCell><mxCell id="CuwMilruXOaXdkZQeSuB-9" value="+ Department(listOfProfs: List&lt;Professor&gt;)  " style="text;align=left;verticalAlign=top;spacingLeft=4;spacingRight=4;overflow=hidden;rotatable=0;points=[[0,0.5],[1,0.5]];portConstraint=eastwest;" parent="zkfFHV4jXpPFQw0GAbJ--0" vertex="1"><mxGeometry y="82" width="340" height="26" as="geometry"/></mxCell><mxCell id="zkfFHV4jXpPFQw0GAbJ--5" value="+ getCourseMap(): HashMap&lt;String, Course&gt;" style="text;align=left;verticalAlign=top;spacingLeft=4;spacingRight=4;overflow=hidden;rotatable=0;points=[[0,0.5],[1,0.5]];portConstraint=eastwest;" parent="zkfFHV4jXpPFQw0GAbJ--0" vertex="1"><mxGeometry y="108" width="340" height="28" as="geometry"/></mxCell><mxCell id="CuwMilruXOaXdkZQeSuB-6" value=" + setCourseMap(courseMap: HashMap&lt;String,Course&gt;): void" style="text;align=left;verticalAlign=top;spacingLeft=4;spacingRight=4;overflow=hidden;rotatable=0;points=[[0,0.5],[1,0.5]];portConstraint=eastwest;" parent="zkfFHV4jXpPFQw0GAbJ--0" vertex="1"><mxGeometry y="136" width="340" height="30" as="geometry"/></mxCell><mxCell id="CuwMilruXOaXdkZQeSuB-7" value="+ getListOfProfs(): List&lt;Professor&gt;" style="text;align=left;verticalAlign=top;spacingLeft=4;spacingRight=4;overflow=hidden;rotatable=0;points=[[0,0.5],[1,0.5]];portConstraint=eastwest;" parent="zkfFHV4jXpPFQw0GAbJ--0" vertex="1"><mxGeometry y="166" width="340" height="30" as="geometry"/></mxCell><mxCell id="CuwMilruXOaXdkZQeSuB-8" value="+ setListOfProfs(listOfProfs: List&lt;Professor&gt;): void  " style="text;align=left;verticalAlign=top;spacingLeft=4;spacingRight=4;overflow=hidden;rotatable=0;points=[[0,0.5],[1,0.5]];portConstraint=eastwest;" parent="zkfFHV4jXpPFQw0GAbJ--0" vertex="1"><mxGeometry y="196" width="340" height="30" as="geometry"/></mxCell><mxCell id="zkfFHV4jXpPFQw0GAbJ--17" value="Courses" style="swimlane;fontStyle=1;align=center;verticalAlign=top;childLayout=stackLayout;horizontal=1;startSize=26;horizontalStack=0;resizeParent=1;resizeLast=0;collapsible=1;marginBottom=0;rounded=0;shadow=0;strokeWidth=1;" parent="WIyWlLk6GJQsqaUBKTNV-1" vertex="1"><mxGeometry x="1050" y="60" width="410" height="510" as="geometry"><mxRectangle x="550" y="140" width="160" height="26" as="alternateBounds"/></mxGeometry></mxCell><mxCell id="zkfFHV4jXpPFQw0GAbJ--18" value="- id: String " style="text;align=left;verticalAlign=top;spacingLeft=4;spacingRight=4;overflow=hidden;rotatable=0;points=[[0,0.5],[1,0.5]];portConstraint=eastwest;" parent="zkfFHV4jXpPFQw0GAbJ--17" vertex="1"><mxGeometry y="26" width="410" height="26" as="geometry"/></mxCell><mxCell id="zkfFHV4jXpPFQw0GAbJ--19" value=" - title: String" style="text;align=left;verticalAlign=top;spacingLeft=4;spacingRight=4;overflow=hidden;rotatable=0;points=[[0,0.5],[1,0.5]];portConstraint=eastwest;rounded=0;shadow=0;html=0;" parent="zkfFHV4jXpPFQw0GAbJ--17" vertex="1"><mxGeometry y="52" width="410" height="26" as="geometry"/></mxCell><mxCell id="zkfFHV4jXpPFQw0GAbJ--20" value=" - discipline: String" style="text;align=left;verticalAlign=top;spacingLeft=4;spacingRight=4;overflow=hidden;rotatable=0;points=[[0,0.5],[1,0.5]];portConstraint=eastwest;rounded=0;shadow=0;html=0;" parent="zkfFHV4jXpPFQw0GAbJ--17" vertex="1"><mxGeometry y="78" width="410" height="26" as="geometry"/></mxCell><mxCell id="zkfFHV4jXpPFQw0GAbJ--21" value="- numberOfHours: int" style="text;align=left;verticalAlign=top;spacingLeft=4;spacingRight=4;overflow=hidden;rotatable=0;points=[[0,0.5],[1,0.5]];portConstraint=eastwest;rounded=0;shadow=0;html=0;" parent="zkfFHV4jXpPFQw0GAbJ--17" vertex="1"><mxGeometry y="104" width="410" height="26" as="geometry"/></mxCell><mxCell id="zkfFHV4jXpPFQw0GAbJ--22" value="- numOfGroups: int" style="text;align=left;verticalAlign=top;spacingLeft=4;spacingRight=4;overflow=hidden;rotatable=0;points=[[0,0.5],[1,0.5]];portConstraint=eastwest;rounded=0;shadow=0;html=0;" parent="zkfFHV4jXpPFQw0GAbJ--17" vertex="1"><mxGeometry y="130" width="410" height="26" as="geometry"/></mxCell><mxCell id="zkfFHV4jXpPFQw0GAbJ--23" value="" style="line;html=1;strokeWidth=1;align=left;verticalAlign=middle;spacingTop=-1;spacingLeft=3;spacingRight=3;rotatable=0;labelPosition=right;points=[];portConstraint=eastwest;" parent="zkfFHV4jXpPFQw0GAbJ--17" vertex="1"><mxGeometry y="156" width="410" height="8" as="geometry"/></mxCell><mxCell id="CuwMilruXOaXdkZQeSuB-19" value=" + Course(id: String, title: String,discipline: String, numberOfHours: int, numOfGroups: int)   " style="text;align=left;verticalAlign=top;spacingLeft=4;spacingRight=4;overflow=hidden;rotatable=0;points=[[0,0.5],[1,0.5]];portConstraint=eastwest;" parent="zkfFHV4jXpPFQw0GAbJ--17" vertex="1"><mxGeometry y="164" width="410" height="26" as="geometry"/></mxCell><mxCell id="CuwMilruXOaXdkZQeSuB-20" value="+ Course(course: Course)" style="text;align=left;verticalAlign=top;spacingLeft=4;spacingRight=4;overflow=hidden;rotatable=0;points=[[0,0.5],[1,0.5]];portConstraint=eastwest;" parent="zkfFHV4jXpPFQw0GAbJ--17" vertex="1"><mxGeometry y="190" width="410" height="26" as="geometry"/></mxCell><mxCell id="zkfFHV4jXpPFQw0GAbJ--24" value="+ getId(): String" style="text;align=left;verticalAlign=top;spacingLeft=4;spacingRight=4;overflow=hidden;rotatable=0;points=[[0,0.5],[1,0.5]];portConstraint=eastwest;" parent="zkfFHV4jXpPFQw0GAbJ--17" vertex="1"><mxGeometry y="216" width="410" height="26" as="geometry"/></mxCell><mxCell id="zkfFHV4jXpPFQw0GAbJ--25" value="+ setId(id: String): void&#10; " style="text;align=left;verticalAlign=top;spacingLeft=4;spacingRight=4;overflow=hidden;rotatable=0;points=[[0,0.5],[1,0.5]];portConstraint=eastwest;" parent="zkfFHV4jXpPFQw0GAbJ--17" vertex="1"><mxGeometry y="242" width="410" height="30" as="geometry"/></mxCell><mxCell id="CuwMilruXOaXdkZQeSuB-11" value="+ getTitle(): String  " style="text;align=left;verticalAlign=top;spacingLeft=4;spacingRight=4;overflow=hidden;rotatable=0;points=[[0,0.5],[1,0.5]];portConstraint=eastwest;" parent="zkfFHV4jXpPFQw0GAbJ--17" vertex="1"><mxGeometry y="272" width="410" height="26" as="geometry"/></mxCell><mxCell id="CuwMilruXOaXdkZQeSuB-12" value="+ setTitle(title: String): void " style="text;align=left;verticalAlign=top;spacingLeft=4;spacingRight=4;overflow=hidden;rotatable=0;points=[[0,0.5],[1,0.5]];portConstraint=eastwest;" parent="zkfFHV4jXpPFQw0GAbJ--17" vertex="1"><mxGeometry y="298" width="410" height="26" as="geometry"/></mxCell><mxCell id="CuwMilruXOaXdkZQeSuB-13" value="+ getDiscipline(): String" style="text;align=left;verticalAlign=top;spacingLeft=4;spacingRight=4;overflow=hidden;rotatable=0;points=[[0,0.5],[1,0.5]];portConstraint=eastwest;" parent="zkfFHV4jXpPFQw0GAbJ--17" vertex="1"><mxGeometry y="324" width="410" height="27" as="geometry"/></mxCell><mxCell id="CuwMilruXOaXdkZQeSuB-14" value="+ setDiscipline(discipline: String): void" style="text;align=left;verticalAlign=top;spacingLeft=4;spacingRight=4;overflow=hidden;rotatable=0;points=[[0,0.5],[1,0.5]];portConstraint=eastwest;" parent="zkfFHV4jXpPFQw0GAbJ--17" vertex="1"><mxGeometry y="351" width="410" height="26" as="geometry"/></mxCell><mxCell id="CuwMilruXOaXdkZQeSuB-17" value="+ getNumOfGroups(): int  " style="text;align=left;verticalAlign=top;spacingLeft=4;spacingRight=4;overflow=hidden;rotatable=0;points=[[0,0.5],[1,0.5]];portConstraint=eastwest;" parent="zkfFHV4jXpPFQw0GAbJ--17" vertex="1"><mxGeometry y="377" width="410" height="26" as="geometry"/></mxCell><mxCell id="CuwMilruXOaXdkZQeSuB-18" value="+ setNumOfGroups(numOfGroups: int): void   " style="text;align=left;verticalAlign=top;spacingLeft=4;spacingRight=4;overflow=hidden;rotatable=0;points=[[0,0.5],[1,0.5]];portConstraint=eastwest;" parent="zkfFHV4jXpPFQw0GAbJ--17" vertex="1"><mxGeometry y="403" width="410" height="26" as="geometry"/></mxCell><mxCell id="CuwMilruXOaXdkZQeSuB-15" value=" + getNumberOfHours(): int " style="text;align=left;verticalAlign=top;spacingLeft=4;spacingRight=4;overflow=hidden;rotatable=0;points=[[0,0.5],[1,0.5]];portConstraint=eastwest;" parent="zkfFHV4jXpPFQw0GAbJ--17" vertex="1"><mxGeometry y="429" width="410" height="26" as="geometry"/></mxCell><mxCell id="CuwMilruXOaXdkZQeSuB-16" value="+ setNumberOfHours(numberOfHours: int): void   " style="text;align=left;verticalAlign=top;spacingLeft=4;spacingRight=4;overflow=hidden;rotatable=0;points=[[0,0.5],[1,0.5]];portConstraint=eastwest;" parent="zkfFHV4jXpPFQw0GAbJ--17" vertex="1"><mxGeometry y="455" width="410" height="26" as="geometry"/></mxCell><mxCell id="CuwMilruXOaXdkZQeSuB-21" value=" + toString(): String " style="text;align=left;verticalAlign=top;spacingLeft=4;spacingRight=4;overflow=hidden;rotatable=0;points=[[0,0.5],[1,0.5]];portConstraint=eastwest;" parent="zkfFHV4jXpPFQw0GAbJ--17" vertex="1"><mxGeometry y="481" width="410" height="26" as="geometry"/></mxCell><mxCell id="CuwMilruXOaXdkZQeSuB-23" value="Professor" style="swimlane;fontStyle=1;align=center;verticalAlign=top;childLayout=stackLayout;horizontal=1;startSize=26;horizontalStack=0;resizeParent=1;resizeLast=0;collapsible=1;marginBottom=0;rounded=0;shadow=0;strokeWidth=1;" parent="WIyWlLk6GJQsqaUBKTNV-1" vertex="1"><mxGeometry x="130" y="80" width="410" height="590" as="geometry"><mxRectangle x="550" y="140" width="160" height="26" as="alternateBounds"/></mxGeometry></mxCell><mxCell id="CuwMilruXOaXdkZQeSuB-24" value="- id: int" style="text;align=left;verticalAlign=top;spacingLeft=4;spacingRight=4;overflow=hidden;rotatable=0;points=[[0,0.5],[1,0.5]];portConstraint=eastwest;" parent="CuwMilruXOaXdkZQeSuB-23" vertex="1"><mxGeometry y="26" width="410" height="26" as="geometry"/></mxCell><mxCell id="CuwMilruXOaXdkZQeSuB-26" value=" - name: String    " style="text;align=left;verticalAlign=top;spacingLeft=4;spacingRight=4;overflow=hidden;rotatable=0;points=[[0,0.5],[1,0.5]];portConstraint=eastwest;rounded=0;shadow=0;html=0;" parent="CuwMilruXOaXdkZQeSuB-23" vertex="1"><mxGeometry y="52" width="410" height="26" as="geometry"/></mxCell><mxCell id="CuwMilruXOaXdkZQeSuB-27" value="- seniorityLevel: double" style="text;align=left;verticalAlign=top;spacingLeft=4;spacingRight=4;overflow=hidden;rotatable=0;points=[[0,0.5],[1,0.5]];portConstraint=eastwest;rounded=0;shadow=0;html=0;" parent="CuwMilruXOaXdkZQeSuB-23" vertex="1"><mxGeometry y="78" width="410" height="26" as="geometry"/></mxCell><mxCell id="CuwMilruXOaXdkZQeSuB-28" value="- hiringDate: Date" style="text;align=left;verticalAlign=top;spacingLeft=4;spacingRight=4;overflow=hidden;rotatable=0;points=[[0,0.5],[1,0.5]];portConstraint=eastwest;rounded=0;shadow=0;html=0;" parent="CuwMilruXOaXdkZQeSuB-23" vertex="1"><mxGeometry y="104" width="410" height="26" as="geometry"/></mxCell><mxCell id="CuwMilruXOaXdkZQeSuB-44" value=" - setOfDisciplines: HashSet&lt;String&gt;" style="text;align=left;verticalAlign=top;spacingLeft=4;spacingRight=4;overflow=hidden;rotatable=0;points=[[0,0.5],[1,0.5]];portConstraint=eastwest;rounded=0;shadow=0;html=0;" parent="CuwMilruXOaXdkZQeSuB-23" vertex="1"><mxGeometry y="130" width="410" height="26" as="geometry"/></mxCell><mxCell id="CuwMilruXOaXdkZQeSuB-43" value="- listOfAffectedCourses: ArrayList&lt;Course&gt;" style="text;align=left;verticalAlign=top;spacingLeft=4;spacingRight=4;overflow=hidden;rotatable=0;points=[[0,0.5],[1,0.5]];portConstraint=eastwest;rounded=0;shadow=0;html=0;" parent="CuwMilruXOaXdkZQeSuB-23" vertex="1"><mxGeometry y="156" width="410" height="26" as="geometry"/></mxCell><mxCell id="CuwMilruXOaXdkZQeSuB-29" value="" style="line;html=1;strokeWidth=1;align=left;verticalAlign=middle;spacingTop=-1;spacingLeft=3;spacingRight=3;rotatable=0;labelPosition=right;points=[];portConstraint=eastwest;" parent="CuwMilruXOaXdkZQeSuB-23" vertex="1"><mxGeometry y="182" width="410" height="8" as="geometry"/></mxCell><mxCell id="CuwMilruXOaXdkZQeSuB-30" value="+ Professor(id: int, name: String, seniorityLevel: double, hiringDate: Date) " style="text;align=left;verticalAlign=top;spacingLeft=4;spacingRight=4;overflow=hidden;rotatable=0;points=[[0,0.5],[1,0.5]];portConstraint=eastwest;" parent="CuwMilruXOaXdkZQeSuB-23" vertex="1"><mxGeometry y="190" width="410" height="26" as="geometry"/></mxCell><mxCell id="CuwMilruXOaXdkZQeSuB-31" value="+ compareTo(o: Professor): int " style="text;align=left;verticalAlign=top;spacingLeft=4;spacingRight=4;overflow=hidden;rotatable=0;points=[[0,0.5],[1,0.5]];portConstraint=eastwest;" parent="CuwMilruXOaXdkZQeSuB-23" vertex="1"><mxGeometry y="216" width="410" height="30" as="geometry"/></mxCell><mxCell id="CuwMilruXOaXdkZQeSuB-32" value="+ getId(): int     " style="text;align=left;verticalAlign=top;spacingLeft=4;spacingRight=4;overflow=hidden;rotatable=0;points=[[0,0.5],[1,0.5]];portConstraint=eastwest;" parent="CuwMilruXOaXdkZQeSuB-23" vertex="1"><mxGeometry y="246" width="410" height="26" as="geometry"/></mxCell><mxCell id="CuwMilruXOaXdkZQeSuB-33" value="+ setId(id: int): void " style="text;align=left;verticalAlign=top;spacingLeft=4;spacingRight=4;overflow=hidden;rotatable=0;points=[[0,0.5],[1,0.5]];portConstraint=eastwest;" parent="CuwMilruXOaXdkZQeSuB-23" vertex="1"><mxGeometry y="272" width="410" height="26" as="geometry"/></mxCell><mxCell id="CuwMilruXOaXdkZQeSuB-34" value="+ getName(): String  " style="text;align=left;verticalAlign=top;spacingLeft=4;spacingRight=4;overflow=hidden;rotatable=0;points=[[0,0.5],[1,0.5]];portConstraint=eastwest;" parent="CuwMilruXOaXdkZQeSuB-23" vertex="1"><mxGeometry y="298" width="410" height="26" as="geometry"/></mxCell><mxCell id="CuwMilruXOaXdkZQeSuB-35" value="+ setName(name: String): void" style="text;align=left;verticalAlign=top;spacingLeft=4;spacingRight=4;overflow=hidden;rotatable=0;points=[[0,0.5],[1,0.5]];portConstraint=eastwest;" parent="CuwMilruXOaXdkZQeSuB-23" vertex="1"><mxGeometry y="324" width="410" height="26" as="geometry"/></mxCell><mxCell id="CuwMilruXOaXdkZQeSuB-36" value=" + getSeniorityLevel(): double " style="text;align=left;verticalAlign=top;spacingLeft=4;spacingRight=4;overflow=hidden;rotatable=0;points=[[0,0.5],[1,0.5]];portConstraint=eastwest;" parent="CuwMilruXOaXdkZQeSuB-23" vertex="1"><mxGeometry y="350" width="410" height="26" as="geometry"/></mxCell><mxCell id="CuwMilruXOaXdkZQeSuB-37" value="+ setSeniorityLevel(seniorityLevel: double): void  " style="text;align=left;verticalAlign=top;spacingLeft=4;spacingRight=4;overflow=hidden;rotatable=0;points=[[0,0.5],[1,0.5]];portConstraint=eastwest;" parent="CuwMilruXOaXdkZQeSuB-23" vertex="1"><mxGeometry y="376" width="410" height="26" as="geometry"/></mxCell><mxCell id="CuwMilruXOaXdkZQeSuB-38" value=" + getHiringDate(): Date " style="text;align=left;verticalAlign=top;spacingLeft=4;spacingRight=4;overflow=hidden;rotatable=0;points=[[0,0.5],[1,0.5]];portConstraint=eastwest;" parent="CuwMilruXOaXdkZQeSuB-23" vertex="1"><mxGeometry y="402" width="410" height="26" as="geometry"/></mxCell><mxCell id="CuwMilruXOaXdkZQeSuB-39" value="+ setHiringDate(hiringDate: Date): void" style="text;align=left;verticalAlign=top;spacingLeft=4;spacingRight=4;overflow=hidden;rotatable=0;points=[[0,0.5],[1,0.5]];portConstraint=eastwest;" parent="CuwMilruXOaXdkZQeSuB-23" vertex="1"><mxGeometry y="428" width="410" height="26" as="geometry"/></mxCell><mxCell id="CuwMilruXOaXdkZQeSuB-40" value="+ getSetOfDisciplines(): HashSet&lt;String&gt;" style="text;align=left;verticalAlign=top;spacingLeft=4;spacingRight=4;overflow=hidden;rotatable=0;points=[[0,0.5],[1,0.5]];portConstraint=eastwest;" parent="CuwMilruXOaXdkZQeSuB-23" vertex="1"><mxGeometry y="454" width="410" height="26" as="geometry"/></mxCell><mxCell id="CuwMilruXOaXdkZQeSuB-41" value="+ setSetOfDisciplines(setOfDisciplines: HashSet&lt;String&gt;): void" style="text;align=left;verticalAlign=top;spacingLeft=4;spacingRight=4;overflow=hidden;rotatable=0;points=[[0,0.5],[1,0.5]];portConstraint=eastwest;" parent="CuwMilruXOaXdkZQeSuB-23" vertex="1"><mxGeometry y="480" width="410" height="26" as="geometry"/></mxCell><mxCell id="CuwMilruXOaXdkZQeSuB-42" value="+ getListOfAffectedCourses(): ArrayList&lt;Course&gt; " style="text;align=left;verticalAlign=top;spacingLeft=4;spacingRight=4;overflow=hidden;rotatable=0;points=[[0,0.5],[1,0.5]];portConstraint=eastwest;" parent="CuwMilruXOaXdkZQeSuB-23" vertex="1"><mxGeometry y="506" width="410" height="26" as="geometry"/></mxCell><mxCell id="CuwMilruXOaXdkZQeSuB-45" value="+ setListOfAffectedCourses(listOfAffectedCourses: ArrayList&lt;Course&gt;): void     " style="text;align=left;verticalAlign=top;spacingLeft=4;spacingRight=4;overflow=hidden;rotatable=0;points=[[0,0.5],[1,0.5]];portConstraint=eastwest;" parent="CuwMilruXOaXdkZQeSuB-23" vertex="1"><mxGeometry y="532" width="410" height="26" as="geometry"/></mxCell><mxCell id="CuwMilruXOaXdkZQeSuB-47" value=" + toString(): String     " style="text;align=left;verticalAlign=top;spacingLeft=4;spacingRight=4;overflow=hidden;rotatable=0;points=[[0,0.5],[1,0.5]];portConstraint=eastwest;" parent="CuwMilruXOaXdkZQeSuB-23" vertex="1"><mxGeometry y="558" width="410" height="26" as="geometry"/></mxCell><mxCell id="CuwMilruXOaXdkZQeSuB-48" value="" style="endArrow=diamondThin;endFill=1;endSize=24;html=1;rounded=0;exitX=-0.006;exitY=0.169;exitDx=0;exitDy=0;exitPerimeter=0;" parent="WIyWlLk6GJQsqaUBKTNV-1" source="zkfFHV4jXpPFQw0GAbJ--21" target="zkfFHV4jXpPFQw0GAbJ--0" edge="1"><mxGeometry width="160" relative="1" as="geometry"><mxPoint x="440" y="340" as="sourcePoint"/><mxPoint x="530" y="230" as="targetPoint"/></mxGeometry></mxCell><mxCell id="CuwMilruXOaXdkZQeSuB-52" value="" style="endArrow=diamondThin;endFill=0;endSize=24;html=1;rounded=0;exitX=1.005;exitY=0.062;exitDx=0;exitDy=0;exitPerimeter=0;" parent="WIyWlLk6GJQsqaUBKTNV-1" source="CuwMilruXOaXdkZQeSuB-43" target="zkfFHV4jXpPFQw0GAbJ--0" edge="1"><mxGeometry width="160" relative="1" as="geometry"><mxPoint x="204" y="450" as="sourcePoint"/><mxPoint x="230" y="390" as="targetPoint"/></mxGeometry></mxCell><mxCell id="CuwMilruXOaXdkZQeSuB-53" value="" style="line;strokeWidth=1;fillColor=none;align=left;verticalAlign=middle;spacingTop=-1;spacingLeft=3;spacingRight=3;rotatable=0;labelPosition=right;points=[];portConstraint=eastwest;" parent="WIyWlLk6GJQsqaUBKTNV-1" vertex="1"><mxGeometry x="420" y="538" width="110" height="8" as="geometry"/></mxCell></root></mxGraphModel></diagram></mxfile>